{"title":"Hindenburg.[2011].DvdRip.XviD-Kna","uid":6736702,"size":2624395264,"categoryP":"video","categoryS":"movies","magnet":"?xt=urn:btih:a28e02c0d88a849c796199e109b40b145dd82fe9&amp;dn=Hindenburg.%5B2011%5D.DvdRip.XviD-Kna&amp;tr=udp%3A%2F%2Ftracker.openbittorrent.com%3A80&amp;tr=udp%3A%2F%2Fopen.demonii.com%3A1337&amp;tr=udp%3A%2F%2Ftracker.coppersurfer.tk%3A6969&amp;tr=udp%3A%2F%2Fexodus.desync.com%3A6969","seeders":0,"leechers":0,"uploader":"Jon.Pson","files":-1,"time":1318354130,"description":"Made for TV drama recreating the May 1937 disaster in which the German airship the Hindenburg caught fire. The Hindenburg was the largest airship in the world and a symbol of growing German commercial and military power. Initially designed to use the non-flammable helium as a lifting gas, the US embargo on helium exports forced the use of hydrogen instead. This proved catastrophic when, docking in.\n\n\n\nGeneral\nComplete name                    : Hindenburg.[2011].DvdRip.XviD-KnÃƒÂ£\\Hindenburg.[2011].DvdRip.XviD-KnÃƒÂ£.avi\nFormat                           : AVI\nFormat/Info                      : Audio Video Interleave\nFormat profile                   : OpenDML\nFile size                        : 2.44 GiB\nDuration                         : 3h 0mn\nOverall bit rate                 : 1 943 Kbps\nWriting application              : VirtualDubMod 1.5.4.1 (build 2178/release)\nWriting library                  : VirtualDubMod build 2178/release\n\nVideo\nID                               : 0\nFormat                           : MPEG-4 Visual\nFormat profile                   : Advanced Simple@L5\nFormat settings, BVOP            : 1\nFormat settings, QPel            : No\nFormat settings, GMC             : No warppoints\nFormat settings, Matrix          : Custom\nCodec ID                         : XVID\nCodec ID/Hint                    : XviD\nDuration                         : 3h 0mn\nBit rate                         : 1 487 Kbps\nWidth                            : 720 pixels\nHeight                           : 416 pixels\nDisplay aspect ratio             : 16:9\nFrame rate                       : 25.000 fps\nColor space                      : YUV\nChroma subsampling               : 4:2:0\nBit depth                        : 8 bits\nScan type                        : Progressive\nCompression mode                 : Lossy\nBits/(Pixel*Frame)               : 0.199\nStream size                      : 1.87 GiB (77%)\nWriting library                  : XviD 1.2.1 (UTC 2008-12-04)\n\nAudio\nID                               : 1\nFormat                           : AC-3\nFormat/Info                      : Audio Coding 3\nMode extension                   : CM (complete main)\nCodec ID                         : 2000\nDuration                         : 3h 0mn\nBit rate mode                    : Constant\nBit rate                         : 448 Kbps\nChannel(s)                       : 6 channels\nChannel positions                : Front: L C R, Side: L R, LFE\nSampling rate                    : 48.0 KHz\nBit depth                        : 16 bits\nCompression mode                 : Lossy\nStream size                      : 577 MiB (23%)\nAlignment                        : Split accross interleaves\nInterleave, duration             : 96 ms (2.40 video frames)\nInterleave, preload duration     : 96 ms\nLanguage                         : English\n\n","torrent":{"xt":"urn:btih:a28e02c0d88a849c796199e109b40b145dd82fe9","amp;dn":"Hindenburg.%5B2011%5D.DvdRip.XviD-Kna","amp;tr":["udp%3A%2F%2Ftracker.openbittorrent.com%3A80","udp%3A%2F%2Fopen.demonii.com%3A1337","udp%3A%2F%2Ftracker.coppersurfer.tk%3A6969","udp%3A%2F%2Fexodus.desync.com%3A6969"],"infoHash":"a28e02c0d88a849c796199e109b40b145dd82fe9","infoHashBuffer":{"type":"Buffer","data":[162,142,2,192,216,138,132,156,121,97,153,225,9,180,11,20,93,216,47,233]},"announce":[],"urlList":[]}}